<svg version="1.1" id="Layer_1" xmlns="http://www.w3.org/2000/svg" xmlns:xlink="http://www.w3.org/1999/xlink" x="0px" y="0px"
	 width="100%" viewBox="0 0 666 109" enable-background="new 0 0 666 109" xml:space="preserve">
<path fill="none" opacity="1.000000" stroke="none" 
	d="
M499.000000,110.000000 
	C332.666687,110.000000 166.833389,110.000000 1.000067,110.000000 
	C1.000045,73.666702 1.000045,37.333405 1.000022,1.000081 
	C222.999924,1.000054 444.999847,1.000054 666.999817,1.000027 
	C666.999878,37.333252 666.999878,73.666504 666.999939,109.999878 
	C611.166687,110.000000 555.333313,110.000000 499.000000,110.000000 
M20.114264,28.000504 
	C17.991570,28.600735 15.868877,29.200966 12.892619,30.042559 
	C16.614941,34.196491 19.614321,36.421837 24.453680,35.988277 
	C24.453680,35.988277 24.930779,36.102871 24.999567,36.829178 
	C26.056265,39.207932 27.112965,41.586689 27.861801,44.628975 
	C24.463472,46.355816 24.272320,48.570164 27.305878,50.686680 
	C28.948263,51.832573 31.052237,52.316875 33.229733,53.771587 
	C35.528809,56.196632 34.844719,58.431740 33.451416,61.215492 
	C27.125189,73.854996 21.089357,86.639854 14.866733,99.543076 
	C15.624588,99.750687 16.059551,99.974487 16.494289,99.974052 
	C53.645733,99.936897 90.797165,99.882408 128.693771,99.969345 
	C132.524002,101.596298 136.354233,103.223251 140.184448,104.850204 
	C140.417450,104.298256 140.650452,103.746307 140.883453,103.194351 
	C138.962906,102.150505 137.042343,101.106667 136.042252,100.005234 
	C264.355530,100.003532 392.668823,100.002556 520.982117,99.993523 
	C522.977966,99.993385 524.973755,99.894005 527.735291,99.977791 
	C528.509460,99.925957 529.283691,99.874123 530.975098,99.985748 
	C571.269836,99.985748 611.564514,99.985748 652.474304,99.985748 
	C646.152039,87.022766 640.217224,74.903946 634.342712,62.755947 
	C633.451416,60.912704 632.840149,58.934032 632.759216,56.758614 
	C636.107605,55.440315 636.940674,53.227634 635.765930,49.748661 
	C636.865173,47.200237 637.964417,44.651814 639.542908,41.993816 
	C639.542908,41.993816 640.005432,41.827229 640.774231,41.967342 
	C643.286194,41.003296 645.798218,40.039253 648.310181,39.075207 
	C648.300903,38.460648 648.291626,37.846088 648.282349,37.231529 
	C646.547668,36.480949 644.813049,35.730373 643.202087,34.270195 
	C646.204041,28.005905 649.205994,21.741613 652.436646,15.000080 
	C650.056458,15.000080 648.564026,15.000079 647.071594,15.000079 
	C450.219513,15.000086 253.367447,14.999840 56.515366,15.004856 
	C55.018497,15.004894 53.521629,15.076805 51.263432,14.964463 
	C50.492813,15.037026 49.722191,15.109589 48.031891,15.026284 
	C37.064636,15.026284 26.097378,15.026284 14.326118,15.026284 
	C16.861961,19.649254 18.908493,23.380182 20.975355,27.546434 
	C20.975355,27.546434 20.913256,27.977787 20.114264,28.000504 
z"/>
<path fill="#E5EDEC" opacity="1.000000" stroke="none" 
	d="
M526.969604,99.840942 
	C524.973755,99.894005 522.977966,99.993385 520.982117,99.993523 
	C392.668823,100.002556 264.355530,100.003532 135.210754,100.007240 
	C132.879822,99.141396 131.441406,98.129753 129.858658,97.458282 
	C128.870163,97.038918 127.664009,97.132614 126.526840,96.998993 
	C126.498154,97.001915 126.441048,97.009964 126.195305,96.756851 
	C124.962463,95.998444 123.975372,95.493149 122.994301,94.994064 
	C123.000328,95.000267 123.015610,95.008568 122.850433,94.752762 
	C122.118317,94.328094 121.551376,94.159241 120.991676,93.995392 
	C120.998924,94.000397 121.012154,94.012077 120.995148,93.661652 
	C117.981590,91.204651 114.985031,89.098068 111.993958,86.995880 
	C111.999443,87.000267 112.010193,87.009300 111.985268,86.685547 
	C111.303238,85.903748 110.646141,85.445702 109.994621,84.993958 
	C110.000206,85.000259 110.014557,85.009178 109.878967,84.712456 
	C108.824188,83.940384 107.904984,83.465034 106.992737,82.995300 
	C106.999687,83.000908 107.012894,83.012970 106.926254,82.769699 
	C106.555374,82.346611 106.271141,82.166801 105.993279,81.993668 
	C105.999649,82.000351 106.013069,82.013031 105.925217,81.770386 
	C105.554016,81.347580 105.270660,81.167427 104.993210,80.993561 
	C104.999100,80.999840 105.011902,81.011292 104.988762,80.663452 
	C101.973038,76.540031 98.980446,72.764458 95.994843,68.996201 
	C96.001816,69.003525 96.014252,69.018440 95.985397,68.695976 
	C95.319466,67.920853 94.682381,67.468185 93.649498,67.011703 
	C92.458771,67.025146 91.663857,67.042419 90.650932,67.056458 
	C90.432930,67.053230 90.000000,67.001221 89.837479,66.691742 
	C87.600082,61.113091 81.502304,60.785076 78.041916,56.803539 
	C77.590401,56.378212 77.288986,56.182640 76.993584,55.993355 
	C76.999603,55.999638 77.014656,56.008297 76.847733,55.755608 
	C76.116127,55.332436 75.551445,55.161957 74.993301,54.996147 
	C74.999825,55.000820 75.011833,55.011463 74.919617,54.774380 
	C74.548561,54.354843 74.269714,54.172390 73.995346,53.994953 
	C73.999832,53.999969 74.011581,54.006428 73.855240,53.744640 
	C73.134598,53.322544 72.570305,53.162235 72.003159,53.000885 
	C72.000305,52.999847 71.997833,52.994678 72.035042,52.633736 
	C71.180382,50.536449 70.288521,48.800098 69.396652,47.063751 
	C68.946014,47.372513 68.495384,47.681278 67.773232,47.995934 
	C67.320717,48.006889 67.139732,48.011955 66.613495,48.003967 
	C65.806526,47.986263 65.344810,47.981613 64.555145,47.976685 
	C63.496208,47.375088 62.765221,46.773766 61.942085,45.909576 
	C61.562160,45.426228 61.274391,45.205746 60.993156,44.992348 
	C60.999691,44.999435 61.016262,45.009243 60.848190,44.757668 
	C60.116344,44.334862 59.552567,44.163631 58.994209,43.996284 
	C58.999634,44.000168 59.011532,44.006088 58.869148,43.689289 
	C57.482418,42.911156 56.238071,42.449818 54.998222,41.996063 
	C55.002720,42.003643 55.016010,42.015793 54.927944,41.774498 
	C54.556576,41.351734 54.273273,41.170269 53.994835,40.994438 
	C53.999702,41.000072 54.012947,41.006760 53.848785,40.752777 
	C53.119484,40.329803 52.554344,40.160820 51.994507,39.996056 
	C51.999809,40.000275 52.012035,40.006115 51.849876,39.750538 
	C51.121555,39.327251 50.555397,39.159542 49.994530,38.996056 
	C49.999817,39.000275 50.012318,39.005508 49.809109,38.734535 
	C48.733124,38.306549 47.860348,38.149536 46.993637,37.996445 
	C46.999702,38.000366 47.012463,38.007141 46.857910,37.678772 
	C44.029163,36.561161 41.354969,35.771919 38.596283,34.993141 
	C38.511791,35.003605 38.343842,35.031643 38.080933,34.776344 
	C32.877159,32.310108 27.936296,30.099171 22.950356,27.611715 
	C22.255194,27.260502 21.605108,27.185806 20.955025,27.111111 
	C18.908493,23.380182 16.861961,19.649254 14.326118,15.026284 
	C26.097378,15.026284 37.064636,15.026284 48.431793,15.475002 
	C46.819756,23.663553 51.657753,30.508093 62.327713,33.236622 
	C59.819244,28.969088 57.837238,25.670561 55.930748,22.328949 
	C54.576023,19.954437 53.323112,17.521833 52.024761,15.115158 
	C53.521629,15.076805 55.018497,15.004894 56.515366,15.004856 
	C253.367447,14.999840 450.219513,15.000086 647.071594,15.000079 
	C648.564026,15.000079 650.056458,15.000080 652.436646,15.000080 
	C649.205994,21.741613 646.204041,28.005905 642.868164,34.624783 
	C642.353760,34.996902 642.173218,35.014435 641.565979,35.001251 
	C635.898682,35.745144 630.001404,34.979584 626.776489,41.004208 
	C626.555115,41.007957 626.112488,41.019722 625.862366,40.742081 
	C623.402222,40.979397 621.192200,41.494358 618.991089,42.004997 
	C619.000061,42.000679 619.017395,41.990448 618.649780,41.971565 
	C617.182312,42.304382 616.082458,42.656078 614.991272,43.004082 
	C615.000000,43.000389 615.014954,42.988670 614.665039,42.983955 
	C613.204834,43.655937 612.094482,44.332630 610.992188,45.004784 
	C611.000244,45.000248 611.015564,44.989487 610.709290,45.000366 
	C609.929993,45.343929 609.457031,45.676617 608.991028,46.005768 
	C608.998047,46.002228 609.005432,45.988785 608.654785,45.979286 
	C607.197571,46.649822 606.090942,47.329857 604.992188,48.004913 
	C605.000122,47.999931 605.016113,47.989799 604.711609,48.000530 
	C603.932312,48.344273 603.457520,48.677284 602.991455,49.004837 
	C603.000183,48.999374 603.014648,48.984756 602.778931,49.085861 
	C602.356140,49.464127 602.169006,49.741283 601.990845,50.010071 
	C601.999817,50.001701 602.019470,49.986900 601.661499,49.982285 
	C599.878601,49.658581 598.453796,49.339493 597.270020,48.849655 
	C597.683838,48.127087 597.856445,47.575268 598.174316,46.970161 
	C598.206421,46.936295 598.093323,46.955708 597.737854,47.144733 
	C597.318665,47.864758 597.141846,48.415165 596.664551,49.110519 
	C594.570374,51.507050 592.776794,53.758636 590.991943,56.004601 
	C591.000610,55.998974 591.014954,55.984097 590.770630,56.098476 
	C590.294678,56.486404 590.063110,56.759953 589.462891,57.034164 
	C586.331360,57.334938 583.568481,57.635056 580.903015,57.589539 
	C583.829773,53.376057 586.586670,49.491028 583.877380,43.263016 
	C577.698975,48.114544 574.067749,53.678513 572.797119,61.199127 
	C572.022339,62.958157 571.511169,64.496017 570.752197,66.251091 
	C570.332825,67.317245 570.161316,68.166191 569.994873,69.007637 
	C570.000000,69.000145 570.009399,68.984596 569.697144,69.115662 
	C566.920654,72.500130 564.456421,75.753532 561.996094,79.003304 
	C562.000000,78.999664 562.007935,78.991684 561.766907,79.080055 
	C561.346497,79.449905 561.167114,79.731384 560.993896,80.006851 
	C561.000000,80.000847 561.014404,79.991112 560.708984,79.991074 
	C559.931519,80.329758 559.459473,80.668488 558.993713,81.003845 
	C559.000000,81.000465 559.009033,80.989761 558.687866,81.032570 
	C557.908569,81.719170 557.450378,82.362961 556.996094,83.003372 
	C557.000000,83.000000 557.008850,82.993668 556.703857,82.991394 
	C555.929443,83.327759 555.460144,83.666397 554.995361,84.002518 
	C555.000000,84.000000 555.007263,83.991837 554.769531,84.083038 
	C554.352417,84.451309 554.173035,84.728371 553.996826,85.002869 
	C554.000000,85.000305 554.005798,84.994751 553.637390,84.973091 
	C550.843384,86.635735 548.417725,88.320038 545.996094,90.002167 
	C546.000000,90.000000 546.005981,89.992706 545.773682,90.090973 
	C545.357666,90.462486 545.174011,90.735725 544.995117,91.004501 
	C545.000000,91.000038 545.009033,90.990288 544.771729,91.084137 
	C544.352905,91.455299 544.171509,91.732613 543.994995,92.005264 
	C544.000000,92.000610 544.010986,91.992378 543.676147,91.964050 
	C542.197449,91.544434 541.053650,91.153152 539.382141,90.581337 
	C538.304260,92.306038 537.147156,94.157394 535.995178,96.004364 
	C536.000244,95.999962 536.012329,95.992744 535.615112,95.970016 
	C532.468445,97.245171 529.719055,98.543060 526.969604,99.840942 
M121.984306,86.500885 
	C122.115570,86.765816 122.246834,87.030754 122.378098,87.295685 
	C122.260780,86.857506 122.143456,86.419334 122.034203,85.076103 
	C121.299889,76.620552 122.004532,67.839500 116.993401,59.534599 
	C113.240486,66.219742 116.168861,79.825699 121.984306,86.500885 
M88.143242,46.443275 
	C86.498260,44.550484 84.853271,42.657688 82.351212,39.778706 
	C78.458160,52.053326 86.505661,56.982357 92.745667,62.831593 
	C94.011826,56.841599 91.092712,52.009674 88.143242,46.443275 
M606.940796,30.542896 
	C605.887451,32.746178 604.834167,34.949455 603.336487,38.082237 
	C614.198792,34.380581 619.182251,26.862331 614.494324,21.807247 
	C612.097046,24.551863 609.736145,27.254902 606.940796,30.542896 
M548.840454,78.241989 
	C551.095886,72.478844 553.754089,66.763512 551.645874,59.751488 
	C547.240356,63.911972 544.157043,77.697128 546.193848,82.882729 
	C547.051819,81.394165 547.767883,80.151787 548.840454,78.241989 
M64.849960,41.278419 
	C64.942909,41.277939 65.035858,41.277454 64.849960,41.278419 
M541.527954,88.390701 
	C541.527954,88.390701 541.431885,88.563461 541.431885,88.563461 
	C541.431885,88.563461 541.618469,88.537727 541.527954,88.390701 
M63.562622,36.513008 
	C63.562622,36.513008 63.479870,36.557053 63.562622,36.513008 
M544.472412,84.610802 
	C544.472412,84.610802 544.568298,84.435715 544.568298,84.435715 
	C544.568298,84.435715 544.383362,84.462662 544.472412,84.610802 
M603.593689,39.500385 
	C603.593689,39.500385 603.462646,39.584728 603.593689,39.500385 
M67.470619,44.635326 
	C67.470619,44.635326 67.563461,44.462376 67.563461,44.462376 
	C67.563461,44.462376 67.378929,44.490501 67.470619,44.635326 
z"/>
<path fill="#E5EDEC" opacity="1.000000" stroke="none" 
	d="
M571.000000,66.033882 
	C571.511169,64.496017 572.022339,62.958157 573.120972,61.221806 
	C574.139404,61.071461 574.570496,61.119606 575.013367,61.536423 
	C576.193848,62.877903 577.362427,63.850716 578.531067,64.823532 
	C578.665466,63.178040 578.799866,61.532543 579.062256,59.641365 
	C579.728821,58.908844 580.267212,58.422005 580.805664,57.935165 
	C583.568481,57.635056 586.331360,57.334938 589.728149,56.940758 
	C590.579712,56.559158 590.797302,56.271626 591.014954,55.984097 
	C591.014954,55.984097 591.000610,55.998974 591.364075,56.020607 
	C595.158203,54.023792 598.588806,52.005344 602.019470,49.986900 
	C602.019470,49.986900 601.999817,50.001701 602.223572,49.904781 
	C602.636414,49.533493 602.825562,49.259125 603.014648,48.984756 
	C603.014648,48.984756 603.000183,48.999374 603.294922,48.991615 
	C604.065125,48.652504 604.540588,48.321144 605.016113,47.989792 
	C605.016113,47.989799 605.000122,47.999931 605.390991,48.024765 
	C609.198364,48.793427 612.614746,49.537247 616.146606,50.436115 
	C616.443848,50.780628 616.657532,50.921856 617.240479,51.125031 
	C622.382751,53.252373 625.956726,58.360233 632.099304,57.018005 
	C632.840149,58.934032 633.451416,60.912704 634.342712,62.755947 
	C640.217224,74.903946 646.152039,87.022766 652.474304,99.985748 
	C611.564514,99.985748 571.269836,99.985748 530.690308,99.625488 
	C532.274475,98.174400 534.143372,97.083572 536.012329,95.992752 
	C536.012329,95.992744 536.000244,95.999962 536.366394,96.006226 
	C539.158691,94.672455 541.584839,93.332405 544.010986,91.992371 
	C544.010986,91.992378 544.000000,92.000610 544.229126,91.907562 
	C544.641785,91.539764 544.825439,91.265022 545.009033,90.990280 
	C545.009033,90.990288 545.000000,91.000038 545.234497,90.914551 
	C545.648010,90.550270 545.826965,90.271492 546.005981,89.992706 
	C546.005981,89.992706 546.000000,90.000000 546.419556,90.019020 
	C552.564880,89.676323 558.290588,89.314613 564.386108,89.120438 
	C571.382324,89.584518 578.219482,93.396530 584.554443,88.832306 
	C584.550659,88.301300 584.546936,87.770287 584.543152,87.239273 
	C577.716125,87.239273 570.889099,87.239273 563.616211,87.183289 
	C559.753967,87.127304 556.337585,87.127304 552.895569,87.127304 
	C553.136414,86.664680 553.571106,85.829712 554.005798,84.994743 
	C554.005798,84.994751 554.000000,85.000305 554.233337,84.910362 
	C554.646851,84.544220 554.827087,84.268028 555.007263,83.991837 
	C555.007263,83.991837 555.000000,84.000000 555.299805,84.001488 
	C556.069397,83.666534 556.539124,83.330101 557.008850,82.993668 
	C557.008850,82.993668 557.000000,83.000000 557.317505,82.962845 
	C558.093018,82.280380 558.551025,81.635071 559.009033,80.989761 
	C559.009033,80.989761 559.000000,81.000465 559.297241,80.999138 
	C560.067749,80.662247 560.541077,80.326683 561.014404,79.991119 
	C561.014404,79.991112 561.000000,80.000847 561.222168,79.901642 
	C561.632263,79.532188 561.820068,79.261940 562.007935,78.991684 
	C562.007935,78.991684 562.000000,78.999664 562.343140,78.967331 
	C567.644653,75.534050 571.978027,71.034592 578.699829,70.981911 
	C583.139221,70.947105 587.574036,70.328888 592.435364,69.987885 
	C598.958679,71.010605 605.129333,72.586594 611.750000,67.271927 
	C609.258301,66.673256 607.746155,65.848526 606.408630,66.071457 
	C601.580811,66.876099 596.811829,68.033394 591.560303,69.036446 
	C589.276978,69.017319 587.453918,69.015739 585.630859,69.021950 
	C582.113281,69.033920 578.595703,69.050301 575.215088,68.985329 
	C575.205933,68.903397 575.059875,68.900986 574.587158,68.936829 
	C572.843567,68.978256 571.426453,68.981430 570.009399,68.984596 
	C570.009399,68.984596 570.000000,69.000145 570.261597,68.880554 
	C570.682129,67.851936 570.841064,66.942917 571.000000,66.033882 
z"/>
<path fill="#E5EDEC" opacity="1.000000" stroke="none" 
	d="
M62.034237,46.172447 
	C62.765221,46.773766 63.496208,47.375088 64.724731,48.276829 
	C67.480797,50.049725 69.739311,51.522202 71.997833,52.994678 
	C71.997833,52.994678 72.000305,52.999847 72.160980,53.258133 
	C72.884964,53.679752 73.448273,53.843090 74.011581,54.006428 
	C74.011581,54.006428 73.999832,53.999969 74.087006,54.232311 
	C74.453400,54.646923 74.732613,54.829193 75.011833,55.011463 
	C75.011833,55.011463 74.999825,55.000820 75.159515,55.249420 
	C75.884354,55.668110 76.449509,55.838203 77.014656,56.008297 
	C77.014656,56.008297 76.999603,55.999638 77.108391,56.249878 
	C77.542122,56.677849 77.867073,56.855572 78.192017,57.033298 
	C81.502304,60.785076 87.600082,61.113091 89.616638,66.865616 
	C89.393967,67.876945 89.229630,68.404915 89.034561,68.966560 
	C89.003838,69.000229 88.946915,69.071449 88.561234,69.080154 
	C86.777229,69.088852 85.378922,69.088852 83.980606,69.088852 
	C83.933830,69.476418 83.887054,69.863976 83.840279,70.251541 
	C87.564667,70.837296 91.289047,71.423050 95.006271,72.003738 
	C94.999115,71.998672 94.987289,71.986534 95.074554,72.229767 
	C95.446091,72.653275 95.730370,72.833549 96.009201,73.008682 
	C96.003761,73.003548 95.991684,72.996658 96.030685,73.333786 
	C99.050430,76.117699 102.031166,78.564499 105.011902,81.011292 
	C105.011902,81.011292 104.999100,80.999840 105.091057,81.228607 
	C105.459694,81.642601 105.736382,81.827820 106.013069,82.013031 
	C106.013069,82.013031 105.999649,82.000351 106.092484,82.227745 
	C106.461174,82.641083 106.737030,82.827026 107.012894,83.012970 
	C107.012894,83.012970 106.999687,83.000908 107.125572,83.294304 
	C108.172493,84.061531 109.093521,84.535355 110.014557,85.009178 
	C110.014557,85.009178 110.000206,85.000259 110.022514,85.317398 
	C110.699944,86.092796 111.355072,86.551048 112.010193,87.009300 
	C112.010193,87.009300 111.999443,87.000267 112.116501,87.288696 
	C112.625000,88.216766 113.016449,88.856407 113.528778,89.693588 
	C111.738998,89.914696 110.371147,90.083672 109.238777,90.223564 
	C113.133743,91.476906 117.072945,92.744492 121.012154,94.012070 
	C121.012154,94.012077 120.998924,94.000397 121.157166,94.251328 
	C121.882133,94.671028 122.448875,94.839798 123.015610,95.008568 
	C123.015610,95.008568 123.000328,95.000267 123.052292,95.363159 
	C124.216522,96.154030 125.328789,96.581993 126.441048,97.009964 
	C126.441048,97.009964 126.498154,97.001915 126.645615,97.296402 
	C127.178253,98.336967 127.563423,99.083054 127.948593,99.829132 
	C90.797165,99.882408 53.645733,99.936897 16.494289,99.974052 
	C16.059551,99.974487 15.624588,99.750687 14.866733,99.543076 
	C21.089357,86.639854 27.125189,73.854996 33.451416,61.215492 
	C34.844719,58.431740 35.528809,56.196632 33.157387,53.215584 
	C33.085037,52.659584 33.093529,52.198776 33.485451,52.155888 
	C35.687969,51.557106 37.563026,51.152229 39.295303,50.412842 
	C42.565113,49.017189 45.752762,47.429047 49.367680,45.892414 
	C52.844376,45.244640 55.927956,44.625366 59.011532,44.006088 
	C59.011532,44.006088 58.999634,44.000168 59.159012,44.250660 
	C59.884346,44.670517 60.450306,44.839878 61.016262,45.009243 
	C61.016262,45.009243 60.999691,44.999435 61.092815,45.246132 
	C61.468708,45.719364 61.751472,45.945904 62.034237,46.172447 
M59.098137,63.250122 
	C56.814068,63.511486 54.529995,63.772854 51.714745,64.095001 
	C55.932190,69.818581 62.056450,70.768646 73.715691,68.350487 
	C69.130875,66.738564 64.503639,65.111725 59.098137,63.250122 
M83.259354,91.872063 
	C89.345337,91.747536 95.586929,92.999031 101.370605,89.713905 
	C93.997963,89.582405 86.848427,85.258972 79.389343,87.909660 
	C79.255775,88.402786 79.122215,88.895905 78.988647,89.389030 
	C80.141403,90.140068 81.294159,90.891106 83.259354,91.872063 
z"/>
<path fill="#E4ECEB" opacity="1.000000" stroke="none" 
	d="
M38.343842,35.031643 
	C38.343842,35.031643 38.511791,35.003605 38.867477,35.261848 
	C41.819599,36.349106 44.416031,37.178123 47.012463,38.007141 
	C47.012463,38.007141 46.999702,38.000366 47.204948,38.258423 
	C48.277565,38.679489 49.144943,38.842499 50.012318,39.005508 
	C50.012318,39.005508 49.999817,39.000275 50.150742,39.257256 
	C50.871788,39.678192 51.441914,39.842155 52.012035,40.006115 
	C52.012035,40.006115 51.999809,40.000275 52.151291,40.256874 
	C52.872829,40.677902 53.442886,40.842331 54.012947,41.006760 
	C54.012947,41.006760 53.999702,41.000072 54.089584,41.230713 
	C54.458317,41.646168 54.737164,41.830978 55.016010,42.015793 
	C55.016010,42.015793 55.002720,42.003643 54.837082,42.314209 
	C52.780910,43.416237 50.890377,44.207706 48.535606,44.996498 
	C42.054222,44.702660 36.037079,44.411495 29.711807,44.091415 
	C28.992338,44.030151 28.581001,43.997795 28.169662,43.965443 
	C27.112965,41.586689 26.056265,39.207932 25.211315,36.211937 
	C29.729990,35.407009 34.036915,35.219326 38.343842,35.031643 
z"/>
<path fill="#E4ECEB" opacity="1.000000" stroke="none" 
	d="
M616.903015,51.014854 
	C616.657532,50.921856 616.443848,50.780628 615.989136,50.094917 
	C613.479248,48.395378 611.242310,47.192089 609.005432,45.988792 
	C609.005432,45.988785 608.998047,46.002228 609.294373,45.991631 
	C610.065674,45.650513 610.540588,45.320000 611.015564,44.989487 
	C611.015564,44.989487 611.000244,45.000248 611.342896,45.010628 
	C612.795288,44.343563 613.905151,43.666119 615.014954,42.988670 
	C615.014954,42.988670 615.000000,43.000389 615.358887,43.022293 
	C616.817688,42.692955 617.917542,42.341705 619.017395,41.990452 
	C619.017395,41.990448 619.000061,42.000679 619.393311,42.012760 
	C621.895203,41.689804 624.003845,41.354767 626.112488,41.019726 
	C626.112488,41.019722 626.555115,41.007957 627.188354,40.989655 
	C631.568909,41.348694 635.316284,41.726040 639.063599,42.103390 
	C637.964417,44.651814 636.865173,47.200237 635.041138,49.853909 
	C628.511963,50.311058 622.707458,50.662956 616.903015,51.014854 
z"/>
<path fill="#B0C3C1" opacity="1.000000" stroke="none" 
	d="
M51.644096,15.039811 
	C53.323112,17.521833 54.576023,19.954437 55.930748,22.328949 
	C57.837238,25.670561 59.819244,28.969088 62.327713,33.236622 
	C51.657753,30.508093 46.819756,23.663553 48.891632,15.552935 
	C49.722191,15.109589 50.492813,15.037026 51.644096,15.039811 
z"/>
<path fill="#B0C3C1" opacity="1.000000" stroke="none" 
	d="
M617.240479,51.125031 
	C622.707458,50.662956 628.511963,50.311058 634.725769,50.017944 
	C636.940674,53.227634 636.107605,55.440315 632.429260,56.888313 
	C625.956726,58.360233 622.382751,53.252373 617.240479,51.125031 
z"/>
<path fill="#B0C3C1" opacity="1.000000" stroke="none" 
	d="
M38.080933,34.776344 
	C34.036915,35.219326 29.729990,35.407009 25.176922,35.848782 
	C24.930779,36.102871 24.453680,35.988277 24.223394,35.528801 
	C23.333544,32.739044 22.673981,30.408758 22.260040,28.032827 
	C22.505667,27.987181 22.995432,27.888233 22.995432,27.888233 
	C27.936296,30.099171 32.877159,32.310108 38.080933,34.776344 
z"/>
<path fill="#B0C4C2" opacity="1.000000" stroke="none" 
	d="
M639.303223,42.048603 
	C635.316284,41.726040 631.568909,41.348694 627.409668,40.985901 
	C630.001404,34.979584 635.898682,35.745144 641.524292,35.354836 
	C641.274658,37.768501 640.640076,39.797871 640.005432,41.827232 
	C640.005432,41.827229 639.542908,41.993816 639.303223,42.048603 
z"/>
<path fill="#B7C9C7" opacity="1.000000" stroke="none" 
	d="
M22.014416,28.078474 
	C22.673981,30.408758 23.333544,32.739044 23.993183,35.443996 
	C19.614321,36.421837 16.614941,34.196491 12.892619,30.042559 
	C15.868877,29.200966 17.991570,28.600735 20.790287,28.000725 
	C21.649014,28.026787 21.831715,28.052629 22.014416,28.078474 
z"/>
<path fill="#B7C9C7" opacity="1.000000" stroke="none" 
	d="
M28.015732,44.297211 
	C28.581001,43.997795 28.992338,44.030151 29.714020,44.450432 
	C31.047419,47.291836 32.070473,49.745304 33.093529,52.198776 
	C33.093529,52.198776 33.085037,52.659584 33.016510,52.879604 
	C31.052237,52.316875 28.948263,51.832573 27.305878,50.686680 
	C24.272320,48.570164 24.463472,46.355816 28.015732,44.297211 
z"/>
<path fill="#B7C9C7" opacity="1.000000" stroke="none" 
	d="
M640.389832,41.897289 
	C640.640076,39.797871 641.274658,37.768501 641.950928,35.385551 
	C642.173218,35.014435 642.353760,34.996902 642.806274,34.979584 
	C644.813049,35.730373 646.547668,36.480949 648.282349,37.231529 
	C648.291626,37.846088 648.300903,38.460648 648.310181,39.075207 
	C645.798218,40.039253 643.286194,41.003296 640.389832,41.897289 
z"/>
<path fill="#B7C9C7" opacity="1.000000" stroke="none" 
	d="
M128.321182,99.899239 
	C127.563423,99.083054 127.178253,98.336967 126.674301,97.293488 
	C127.664009,97.132614 128.870163,97.038918 129.858658,97.458282 
	C131.441406,98.129753 132.879822,99.141396 134.750519,100.036034 
	C137.042343,101.106667 138.962906,102.150505 140.883453,103.194351 
	C140.650452,103.746307 140.417450,104.298256 140.184448,104.850204 
	C136.354233,103.223251 132.524002,101.596298 128.321182,99.899239 
z"/>
<path fill="#BDCDCC" opacity="1.000000" stroke="none" 
	d="
M535.615112,95.970016 
	C534.143372,97.083572 532.274475,98.174400 530.231689,99.543762 
	C529.283691,99.874123 528.509460,99.925957 527.352417,99.909363 
	C529.719055,98.543060 532.468445,97.245171 535.615112,95.970016 
z"/>
<path fill="#E4ECEB" opacity="1.000000" stroke="none" 
	d="
M22.260042,28.032827 
	C21.831715,28.052629 21.649014,28.026787 21.189785,27.989367 
	C20.913256,27.977787 20.975355,27.546434 20.965191,27.328773 
	C21.605108,27.185806 22.255194,27.260502 22.950356,27.611715 
	C22.995432,27.888233 22.505667,27.987181 22.260042,28.032827 
z"/>
<path fill="#AFC2C1" opacity="1.000000" stroke="none" 
	d="
M88.309944,46.770264 
	C91.092712,52.009674 94.011826,56.841599 92.745667,62.831593 
	C86.505661,56.982357 78.458160,52.053326 82.351212,39.778706 
	C84.853271,42.657688 86.498260,44.550484 88.309944,46.770264 
z"/>
<path fill="#AFC2C1" opacity="1.000000" stroke="none" 
	d="
M580.903015,57.589535 
	C580.267212,58.422005 579.728821,58.908844 578.727173,59.718044 
	C577.176514,60.416187 576.089050,60.791969 575.001526,61.167755 
	C574.570496,61.119606 574.139404,61.071461 573.384521,61.000633 
	C574.067749,53.678513 577.698975,48.114544 583.877380,43.263016 
	C586.586670,49.491028 583.829773,53.376057 580.903015,57.589535 
z"/>
<path fill="#B0C4C2" opacity="1.000000" stroke="none" 
	d="
M121.969360,86.030067 
	C116.168861,79.825699 113.240486,66.219742 116.993401,59.534599 
	C122.004532,67.839500 121.299889,76.620552 122.015350,85.539993 
	C121.996498,86.003876 121.969360,86.030067 121.969360,86.030067 
z"/>
<path fill="#B1C4C2" opacity="1.000000" stroke="none" 
	d="
M607.157959,30.250420 
	C609.736145,27.254902 612.097046,24.551863 614.494324,21.807247 
	C619.182251,26.862331 614.198792,34.380581 603.336487,38.082237 
	C604.834167,34.949455 605.887451,32.746178 607.157959,30.250420 
z"/>
<path fill="#B1C4C2" opacity="1.000000" stroke="none" 
	d="
M548.662231,78.575699 
	C547.767883,80.151787 547.051819,81.394165 546.193848,82.882729 
	C544.157043,77.697128 547.240356,63.911972 551.645874,59.751488 
	C553.754089,66.763512 551.095886,72.478844 548.662231,78.575699 
z"/>
<path fill="#BDCDCC" opacity="1.000000" stroke="none" 
	d="
M569.697144,69.115662 
	C571.426453,68.981430 572.843567,68.978256 574.626587,68.980103 
	C574.992554,68.985123 575.078125,69.064850 575.078125,69.064850 
	C578.595703,69.050301 582.113281,69.033920 585.630859,69.021950 
	C587.453918,69.015739 589.276978,69.017319 591.553467,69.264748 
	C592.006836,69.514130 592.010864,69.971886 592.010864,69.971878 
	C587.574036,70.328888 583.139221,70.947105 578.699829,70.981911 
	C571.978027,71.034592 567.644653,75.534050 562.339233,78.970963 
	C564.456421,75.753532 566.920654,72.500130 569.697144,69.115662 
z"/>
<path fill="#BDCDCC" opacity="1.000000" stroke="none" 
	d="
M553.637390,84.973083 
	C553.571106,85.829712 553.136414,86.664680 552.895569,87.127304 
	C556.337585,87.127304 559.753967,87.127304 563.600464,87.466171 
	C564.025879,88.187660 564.021118,88.570282 564.016357,88.952904 
	C558.290588,89.314613 552.564880,89.676323 546.415649,90.021194 
	C548.417725,88.320038 550.843384,86.635735 553.637390,84.973083 
z"/>
<path fill="#B7C9C7" opacity="1.000000" stroke="none" 
	d="
M120.995148,93.661652 
	C117.072945,92.744492 113.133743,91.476906 109.238777,90.223564 
	C110.371147,90.083672 111.738998,89.914696 113.528778,89.693588 
	C113.016449,88.856407 112.625000,88.216766 112.111008,87.284302 
	C114.985031,89.098068 117.981590,91.204651 120.995148,93.661652 
z"/>
<path fill="#B7C9C7" opacity="1.000000" stroke="none" 
	d="
M104.988762,80.663452 
	C102.031166,78.564499 99.050430,76.117699 96.267990,73.138542 
	C96.306808,71.400414 96.147339,70.194641 95.987869,68.988876 
	C98.980446,72.764458 101.973038,76.540031 104.988762,80.663452 
z"/>
<path fill="#BDCDCC" opacity="1.000000" stroke="none" 
	d="
M601.661499,49.982281 
	C598.588806,52.005344 595.158203,54.023792 591.355347,56.026234 
	C592.776794,53.758636 594.570374,51.507050 596.679749,49.125153 
	C596.995544,48.994846 597.028931,49.020412 597.028931,49.020409 
	C598.453796,49.339493 599.878601,49.658581 601.661499,49.982281 
z"/>
<path fill="#B7C9C7" opacity="1.000000" stroke="none" 
	d="
M95.013428,72.008804 
	C91.289047,71.423050 87.564667,70.837296 83.840279,70.251541 
	C83.887054,69.863976 83.933830,69.476418 83.980606,69.088852 
	C85.378922,69.088852 86.777229,69.088852 88.687912,69.268082 
	C89.549026,69.426147 89.897774,69.404991 90.246521,69.383820 
	C89.852776,69.233513 89.459038,69.083206 89.065292,68.932892 
	C89.229630,68.404915 89.393967,67.876945 89.779152,67.175095 
	C90.000000,67.001221 90.432930,67.053230 90.824234,67.332657 
	C92.481499,69.077660 93.747467,70.543236 95.013428,72.008804 
z"/>
<path fill="#BDCDCC" opacity="1.000000" stroke="none" 
	d="
M543.676147,91.964043 
	C541.584839,93.332405 539.158691,94.672455 536.361328,96.010628 
	C537.147156,94.157394 538.304260,92.306038 539.382141,90.581337 
	C541.053650,91.153152 542.197449,91.544434 543.676147,91.964043 
z"/>
<path fill="#BDCDCC" opacity="1.000000" stroke="none" 
	d="
M72.035042,52.633736 
	C69.739311,51.522202 67.480797,50.049725 65.052681,48.277103 
	C65.344810,47.981613 65.806526,47.986263 66.731766,48.190914 
	C67.557457,48.488949 67.919640,48.586983 68.281815,48.685020 
	C68.202789,48.453362 68.123772,48.221706 68.044754,47.990044 
	C68.495384,47.681278 68.946014,47.372513 69.396652,47.063751 
	C70.288521,48.800098 71.180382,50.536449 72.035042,52.633736 
z"/>
<path fill="#BDCDCC" opacity="1.000000" stroke="none" 
	d="
M608.654785,45.979294 
	C611.242310,47.192089 613.479248,48.395378 615.873657,49.939865 
	C612.614746,49.537247 609.198364,48.793427 605.383118,48.029747 
	C606.090942,47.329857 607.197571,46.649822 608.654785,45.979294 
z"/>
<path fill="#BDCDCC" opacity="1.000000" stroke="none" 
	d="
M48.999847,44.999172 
	C50.890377,44.207706 52.780910,43.416237 54.832581,42.306625 
	C56.238071,42.449818 57.482418,42.911156 58.869148,43.689289 
	C55.927956,44.625366 52.844376,45.244640 49.376537,45.662392 
	C48.992275,45.460869 48.999847,44.999172 48.999847,44.999172 
z"/>
<path fill="#E5EDEC" opacity="1.000000" stroke="none" 
	d="
M95.006271,72.003738 
	C93.747467,70.543236 92.481499,69.077660 91.042236,67.335892 
	C91.663857,67.042419 92.458771,67.025146 93.753235,67.283020 
	C94.839943,68.044914 95.427094,68.531677 96.014252,69.018440 
	C96.014252,69.018440 96.001816,69.003525 95.994843,68.996201 
	C96.147339,70.194641 96.306808,71.400414 96.228981,72.801422 
	C95.991684,72.996658 96.003761,73.003548 95.907471,72.776062 
	C95.536552,72.361237 95.261917,72.173889 94.987289,71.986534 
	C94.987289,71.986534 94.999115,71.998672 95.006271,72.003738 
z"/>
<path fill="#BDCDCC" opacity="1.000000" stroke="none" 
	d="
M46.857910,37.678772 
	C44.416031,37.178123 41.819599,36.349106 38.951969,35.251381 
	C41.354969,35.771919 44.029163,36.561161 46.857910,37.678772 
z"/>
<path fill="#BDCDCC" opacity="1.000000" stroke="none" 
	d="
M625.862366,40.742081 
	C624.003845,41.354767 621.895203,41.689804 619.384399,42.017078 
	C621.192200,41.494358 623.402222,40.979397 625.862366,40.742081 
z"/>
<path fill="#BDCDCC" opacity="1.000000" stroke="none" 
	d="
M614.665039,42.983959 
	C613.905151,43.666119 612.795288,44.343563 611.334839,45.015163 
	C612.094482,44.332630 613.204834,43.655937 614.665039,42.983959 
z"/>
<path fill="#B7C9C7" opacity="1.000000" stroke="none" 
	d="
M126.195305,96.756851 
	C125.328789,96.581993 124.216522,96.154030 123.046265,95.356956 
	C123.975372,95.493149 124.962463,95.998444 126.195305,96.756851 
z"/>
<path fill="#BDCDCC" opacity="1.000000" stroke="none" 
	d="
M570.752197,66.251099 
	C570.841064,66.942917 570.682129,67.851936 570.256470,68.888046 
	C570.161316,68.166191 570.332825,67.317245 570.752197,66.251099 
z"/>
<path fill="#B7C9C7" opacity="1.000000" stroke="none" 
	d="
M111.985268,86.685547 
	C111.355072,86.551048 110.699944,86.092796 110.016930,85.311096 
	C110.646141,85.445702 111.303238,85.903748 111.985268,86.685547 
z"/>
<path fill="#B7C9C7" opacity="1.000000" stroke="none" 
	d="
M109.878967,84.712456 
	C109.093521,84.535355 108.172493,84.061531 107.118622,83.288696 
	C107.904984,83.465034 108.824188,83.940384 109.878967,84.712456 
z"/>
<path fill="#BDCDCC" opacity="1.000000" stroke="none" 
	d="
M558.687866,81.032578 
	C558.551025,81.635071 558.093018,82.280380 557.313599,82.966217 
	C557.450378,82.362961 557.908569,81.719170 558.687866,81.032578 
z"/>
<path fill="#BDCDCC" opacity="1.000000" stroke="none" 
	d="
M618.649780,41.971569 
	C617.917542,42.341705 616.817688,42.692955 615.350220,43.025990 
	C616.082458,42.656078 617.182312,42.304382 618.649780,41.971569 
z"/>
<path fill="#BDCDCC" opacity="1.000000" stroke="none" 
	d="
M49.809109,38.734535 
	C49.144943,38.842499 48.277565,38.679489 47.198883,38.254501 
	C47.860348,38.149536 48.733124,38.306549 49.809109,38.734535 
z"/>
<path fill="#B7C9C7" opacity="1.000000" stroke="none" 
	d="
M95.985397,68.695976 
	C95.427094,68.531677 94.839943,68.044914 94.149048,67.286835 
	C94.682381,67.468185 95.319466,67.920853 95.985397,68.695976 
z"/>
<path fill="#E4ECEB" opacity="1.000000" stroke="none" 
	d="
M67.773224,47.995934 
	C68.123772,48.221706 68.202789,48.453362 68.281815,48.685020 
	C67.919640,48.586983 67.557457,48.488949 67.077011,48.203972 
	C67.139732,48.011955 67.320717,48.006889 67.773224,47.995934 
z"/>
<path fill="#BDCDCC" opacity="1.000000" stroke="none" 
	d="
M556.703857,82.991394 
	C556.539124,83.330101 556.069397,83.666534 555.295227,84.003998 
	C555.460144,83.666397 555.929443,83.327759 556.703857,82.991394 
z"/>
<path fill="#BDCDCC" opacity="1.000000" stroke="none" 
	d="
M604.711609,48.000526 
	C604.540588,48.321144 604.065125,48.652504 603.286133,48.997078 
	C603.457520,48.677284 603.932312,48.344273 604.711609,48.000526 
z"/>
<path fill="#B0C4C2" opacity="1.000000" stroke="none" 
	d="
M122.011322,85.992516 
	C122.143456,86.419334 122.260780,86.857506 122.378098,87.295685 
	C122.246834,87.030754 122.115570,86.765816 121.976837,86.265472 
	C121.969360,86.030067 121.996498,86.003876 122.011322,85.992516 
z"/>
<path fill="#BDCDCC" opacity="1.000000" stroke="none" 
	d="
M60.848190,44.757668 
	C60.450306,44.839878 59.884346,44.670517 59.153587,44.246777 
	C59.552567,44.163631 60.116344,44.334862 60.848190,44.757668 
z"/>
<path fill="#BDCDCC" opacity="1.000000" stroke="none" 
	d="
M51.849876,39.750538 
	C51.441914,39.842155 50.871788,39.678192 50.145454,39.253036 
	C50.555397,39.159542 51.121555,39.327251 51.849876,39.750538 
z"/>
<path fill="#BDCDCC" opacity="1.000000" stroke="none" 
	d="
M560.708984,79.991074 
	C560.541077,80.326683 560.067749,80.662247 559.290894,81.002518 
	C559.459473,80.668488 559.931519,80.329758 560.708984,79.991074 
z"/>
<path fill="#BDCDCC" opacity="1.000000" stroke="none" 
	d="
M53.848785,40.752777 
	C53.442886,40.842331 52.872829,40.677902 52.145988,40.252651 
	C52.554344,40.160820 53.119484,40.329803 53.848785,40.752777 
z"/>
<path fill="#BDCDCC" opacity="1.000000" stroke="none" 
	d="
M73.855240,53.744640 
	C73.448273,53.843090 72.884964,53.679752 72.163834,53.259171 
	C72.570305,53.162235 73.134598,53.322544 73.855240,53.744640 
z"/>
<path fill="#B7C9C7" opacity="1.000000" stroke="none" 
	d="
M122.850433,94.752762 
	C122.448875,94.839798 121.882133,94.671028 121.149918,94.246323 
	C121.551376,94.159241 122.118317,94.328094 122.850433,94.752762 
z"/>
<path fill="#BDCDCC" opacity="1.000000" stroke="none" 
	d="
M76.847733,55.755608 
	C76.449509,55.838203 75.884354,55.668110 75.152985,55.244743 
	C75.551445,55.161957 76.116127,55.332436 76.847733,55.755608 
z"/>
<path fill="#BDCDCC" opacity="1.000000" stroke="none" 
	d="
M610.709290,45.000366 
	C610.540588,45.320000 610.065674,45.650513 609.287354,45.995167 
	C609.457031,45.676617 609.929993,45.343929 610.709290,45.000366 
z"/>
<path fill="#E4ECEB" opacity="1.000000" stroke="none" 
	d="
M64.989380,41.277695 
	C65.035858,41.277454 64.942909,41.277939 64.989380,41.277695 
z"/>
<path fill="#BDCDCC" opacity="1.000000" stroke="none" 
	d="
M596.980347,48.980209 
	C597.141846,48.415165 597.318665,47.864758 597.748962,47.157822 
	C598.002441,47.001297 598.029053,47.023441 598.029053,47.023445 
	C597.856445,47.575268 597.683838,48.127087 597.270020,48.849659 
	C597.028931,49.020412 596.995544,48.994846 596.980347,48.980209 
z"/>
<path fill="#BDCDCC" opacity="1.000000" stroke="none" 
	d="
M545.773682,90.090973 
	C545.826965,90.271492 545.648010,90.550270 545.229614,90.919006 
	C545.174011,90.735725 545.357666,90.462486 545.773682,90.090973 
z"/>
<path fill="#BDCDCC" opacity="1.000000" stroke="none" 
	d="
M541.573242,88.464218 
	C541.618469,88.537727 541.431885,88.563461 541.431885,88.563461 
	C541.431885,88.563461 541.527954,88.390701 541.573242,88.464218 
z"/>
<path fill="#E4ECEB" opacity="1.000000" stroke="none" 
	d="
M63.521248,36.535030 
	C63.479870,36.557053 63.562622,36.513008 63.521248,36.535030 
z"/>
<path fill="#BDCDCC" opacity="1.000000" stroke="none" 
	d="
M544.771729,91.084137 
	C544.825439,91.265022 544.641785,91.539764 544.224121,91.912216 
	C544.171509,91.732613 544.352905,91.455299 544.771729,91.084137 
z"/>
<path fill="#BDCDCC" opacity="1.000000" stroke="none" 
	d="
M554.769531,84.083038 
	C554.827087,84.268028 554.646851,84.544220 554.230164,84.912933 
	C554.173035,84.728371 554.352417,84.451309 554.769531,84.083038 
z"/>
<path fill="#B1C4C2" opacity="1.000000" stroke="none" 
	d="
M544.427856,84.536728 
	C544.383362,84.462662 544.568298,84.435715 544.568298,84.435715 
	C544.568298,84.435715 544.472412,84.610802 544.427856,84.536728 
z"/>
<path fill="#B7C9C7" opacity="1.000000" stroke="none" 
	d="
M106.926254,82.769699 
	C106.737030,82.827026 106.461174,82.641083 106.086105,82.221069 
	C106.271141,82.166801 106.555374,82.346611 106.926254,82.769699 
z"/>
<path fill="#B7C9C7" opacity="1.000000" stroke="none" 
	d="
M105.925217,81.770386 
	C105.736382,81.827820 105.459694,81.642601 105.085159,81.222328 
	C105.270660,81.167427 105.554016,81.347580 105.925217,81.770386 
z"/>
<path fill="#BDCDCC" opacity="1.000000" stroke="none" 
	d="
M561.766907,79.080055 
	C561.820068,79.261940 561.632263,79.532188 561.216064,79.907654 
	C561.167114,79.731384 561.346497,79.449905 561.766907,79.080055 
z"/>
<path fill="#B1C4C2" opacity="1.000000" stroke="none" 
	d="
M603.528198,39.542557 
	C603.462646,39.584728 603.593689,39.500385 603.528198,39.542557 
z"/>
<path fill="#BDCDCC" opacity="1.000000" stroke="none" 
	d="
M67.424774,44.562912 
	C67.378929,44.490501 67.563461,44.462376 67.563461,44.462376 
	C67.563461,44.462376 67.470619,44.635326 67.424774,44.562912 
z"/>
<path fill="#BDCDCC" opacity="1.000000" stroke="none" 
	d="
M54.927944,41.774498 
	C54.737164,41.830978 54.458317,41.646168 54.084717,41.225082 
	C54.273273,41.170269 54.556576,41.351734 54.927944,41.774498 
z"/>
<path fill="#BDCDCC" opacity="1.000000" stroke="none" 
	d="
M590.770630,56.098476 
	C590.797302,56.271626 590.579712,56.559158 590.096802,56.940098 
	C590.063110,56.759953 590.294678,56.486404 590.770630,56.098476 
z"/>
<path fill="#BDCDCC" opacity="1.000000" stroke="none" 
	d="
M78.041916,56.803539 
	C77.867073,56.855572 77.542122,56.677849 77.102371,56.243599 
	C77.288986,56.182640 77.590401,56.378212 78.041916,56.803539 
z"/>
<path fill="#BDCDCC" opacity="1.000000" stroke="none" 
	d="
M74.919617,54.774380 
	C74.732613,54.829193 74.453400,54.646923 74.082520,54.227295 
	C74.269714,54.172390 74.548561,54.354843 74.919617,54.774380 
z"/>
<path fill="#BDCDCC" opacity="1.000000" stroke="none" 
	d="
M602.778931,49.085861 
	C602.825562,49.259125 602.636414,49.533493 602.214600,49.913151 
	C602.169006,49.741283 602.356140,49.464127 602.778931,49.085861 
z"/>
<path fill="#BDCDCC" opacity="1.000000" stroke="none" 
	d="
M597.991333,46.988209 
	C598.093323,46.955708 598.206421,46.936295 598.174316,46.970161 
	C598.029053,47.023441 598.002441,47.001297 597.991333,46.988209 
z"/>
<path fill="#BDCDCC" opacity="1.000000" stroke="none" 
	d="
M61.942085,45.909576 
	C61.751472,45.945904 61.468708,45.719364 61.086281,45.239044 
	C61.274391,45.205746 61.562160,45.426228 61.942085,45.909576 
z"/>
<path fill="#B0C4C2" opacity="1.000000" stroke="none" 
	d="
M564.386108,89.120438 
	C564.021118,88.570282 564.025879,88.187660 564.046387,87.522156 
	C570.889099,87.239273 577.716125,87.239273 584.543152,87.239273 
	C584.546936,87.770287 584.550659,88.301300 584.554443,88.832306 
	C578.219482,93.396530 571.382324,89.584518 564.386108,89.120438 
z"/>
<path fill="#B0C3C1" opacity="1.000000" stroke="none" 
	d="
M592.435364,69.987885 
	C592.010864,69.971886 592.006836,69.514130 592.013733,69.285828 
	C596.811829,68.033394 601.580811,66.876099 606.408630,66.071457 
	C607.746155,65.848526 609.258301,66.673256 611.750000,67.271927 
	C605.129333,72.586594 598.958679,71.010605 592.435364,69.987885 
z"/>
<path fill="#E5EDEC" opacity="1.000000" stroke="none" 
	d="
M575.013367,61.536423 
	C576.089050,60.791969 577.176514,60.416187 578.599121,59.963730 
	C578.799866,61.532543 578.665466,63.178040 578.531067,64.823532 
	C577.362427,63.850716 576.193848,62.877903 575.013367,61.536423 
z"/>
<path fill="#BDCDCC" opacity="1.000000" stroke="none" 
	d="
M574.953125,68.941849 
	C575.059875,68.900986 575.205933,68.903397 575.215088,68.985336 
	C575.078125,69.064850 574.992554,68.985123 574.953125,68.941849 
z"/>
<path fill="#B0C4C2" opacity="1.000000" stroke="none" 
	d="
M48.535606,44.996498 
	C48.999847,44.999172 48.992275,45.460869 48.983418,45.690887 
	C45.752762,47.429047 42.565113,49.017189 39.295303,50.412842 
	C37.563026,51.152229 35.687969,51.557106 33.485451,52.155888 
	C32.070473,49.745304 31.047419,47.291836 30.022152,44.479347 
	C36.037079,44.411495 42.054222,44.702660 48.535606,44.996498 
z"/>
<path fill="#B1C4C2" opacity="1.000000" stroke="none" 
	d="
M59.487267,63.367500 
	C64.503639,65.111725 69.130875,66.738564 73.715691,68.350487 
	C62.056450,70.768646 55.932190,69.818581 51.714745,64.095001 
	C54.529995,63.772854 56.814068,63.511486 59.487267,63.367500 
z"/>
<path fill="#B1C4C2" opacity="1.000000" stroke="none" 
	d="
M82.853134,91.757103 
	C81.294159,90.891106 80.141403,90.140068 78.988647,89.389030 
	C79.122215,88.895905 79.255775,88.402786 79.389343,87.909660 
	C86.848427,85.258972 93.997963,89.582405 101.370605,89.713905 
	C95.586929,92.999031 89.345337,91.747536 82.853134,91.757103 
z"/>
<path fill="#B7C9C7" opacity="1.000000" stroke="none" 
	d="
M95.074554,72.229767 
	C95.261917,72.173889 95.536552,72.361237 95.912918,72.781204 
	C95.730370,72.833549 95.446091,72.653275 95.074554,72.229767 
z"/>
<path fill="#E5EDEC" opacity="1.000000" stroke="none" 
	d="
M89.034561,68.966560 
	C89.459038,69.083206 89.852776,69.233513 90.246521,69.383820 
	C89.897774,69.404991 89.549026,69.426147 89.073593,69.259384 
	C88.946915,69.071449 89.003838,69.000229 89.034561,68.966560 
z"/>
</svg>